<?xml version="1.0" encoding="UTF-8" standalone="no"?>
<!-- Created with Inkscape (http://www.inkscape.org/) -->

<svg
   xmlns:dc="http://purl.org/dc/elements/1.1/"
   xmlns:cc="http://creativecommons.org/ns#"
   xmlns:rdf="http://www.w3.org/1999/02/22-rdf-syntax-ns#"
   xmlns:svg="http://www.w3.org/2000/svg"
   xmlns="http://www.w3.org/2000/svg"
   xmlns:sodipodi="http://sodipodi.sourceforge.net/DTD/sodipodi-0.dtd"
   xmlns:inkscape="http://www.inkscape.org/namespaces/inkscape"
   version="1.1"
   width="500"
   height="136"
   id="svg2"
   inkscape:version="0.48.3.1 r9886"
   sodipodi:docname="pb_logo.svg"
   inkscape:export-filename="/home/blake/node/pencilblue/public/img/logo_menu.png"
   inkscape:export-xdpi="20.34"
   inkscape:export-ydpi="20.34">
  <sodipodi:namedview
     pagecolor="#ffffff"
     bordercolor="#666666"
     borderopacity="1"
     objecttolerance="10"
     gridtolerance="10"
     guidetolerance="10"
     inkscape:pageopacity="0"
     inkscape:pageshadow="2"
     inkscape:window-width="1366"
     inkscape:window-height="718"
     id="namedview3073"
     showgrid="false"
     showguides="true"
     inkscape:guide-bbox="true"
     inkscape:snap-global="false"
     inkscape:zoom="1.207"
     inkscape:cx="293.83004"
     inkscape:cy="122.61485"
     inkscape:window-x="0"
     inkscape:window-y="26"
     inkscape:window-maximized="1"
     inkscape:current-layer="layer1" />
  <defs
     id="defs4" />
  <metadata
     id="metadata7">
    <rdf:RDF>
      <cc:Work
         rdf:about="">
        <dc:format>image/svg+xml</dc:format>
        <dc:type
           rdf:resource="http://purl.org/dc/dcmitype/StillImage" />
        <dc:title></dc:title>
      </cc:Work>
    </rdf:RDF>
  </metadata>
  <g
     transform="matrix(1,0,0,1.0003242,1.657001,-764.20985)"
     id="layer1"
     inkscape:export-filename="/home/blake/node/pencilblue/public/img/pb_logo.png"
     inkscape:export-xdpi="30.422539"
     inkscape:export-ydpi="30.422539">
    <g
       transform="matrix(1,0,0,0.99116932,-59.065279,487.28272)"
       id="g3808"
       inkscape:export-filename="/home/blake/node/pencilblue/public/img/logo_menu.png"
       inkscape:export-xdpi="21.17647"
       inkscape:export-ydpi="21.17647">
      <path
         d="m 57.408278,416.31169 0,-86.68022 9.75648,0 0,8.14287 c 2.300287,-3.18628 4.89807,-5.56619 7.793287,-7.13974 2.895218,-1.6128 6.405165,-2.4192 10.529903,-2.41929 5.393765,9e-5 10.153031,1.37687 14.277801,4.13046 4.124611,2.75369 7.237981,6.64809 9.340041,11.68324 2.10197,4.99591 3.15296,10.48347 3.15303,16.46275 -7e-5,6.41203 -1.17007,12.19464 -3.50998,17.34786 -2.30035,5.11388 -5.67149,9.04763 -10.113441,11.80125 -4.402371,2.71425 -9.042633,4.07141 -13.920843,4.07141 -3.569496,0 -6.781977,-0.7474 -9.637506,-2.24224 -2.815932,-1.49481 -5.136078,-3.38303 -6.960439,-5.6646 l 0,30.50625 -10.708333,0 m 9.696993,-54.99384 c -3e-5,8.06421 1.645899,14.02384 4.937728,17.87888 3.291798,3.85511 7.277702,5.78265 11.957652,5.78265 4.759235,0 8.824456,-1.98655 12.195631,-5.95966 3.410767,-4.01241 5.116158,-10.20806 5.116218,-18.58695 -6e-5,-7.98549 -1.665791,-13.96478 -4.997244,-17.93791 -3.291859,-3.97305 -7.238074,-5.95959 -11.838678,-5.95965 -4.560976,6e-5 -8.606368,2.12426 -12.136114,6.3727 -3.490149,4.20913 -5.235223,10.34579 -5.235193,18.40994"
         id="path2990"
         style="font-size:40px;font-style:normal;font-variant:normal;font-weight:normal;font-stretch:normal;line-height:125%;letter-spacing:0px;word-spacing:0px;fill:#b3b3b3;fill-opacity:1;stroke:none;font-family:Arial;-inkscape-font-specification:Arial"
         inkscape:connector-curvature="0" />
      <path
         d="m 166.35577,372.11598 11.06528,1.35715 c -1.74513,6.41202 -4.97745,11.38822 -9.69699,14.92859 -4.71967,3.54036 -10.74805,5.31056 -18.08521,5.31056 -9.24092,0 -16.57815,-2.81262 -22.01159,-8.43789 -5.39386,-5.66458 -8.09079,-13.59109 -8.09076,-23.77953 -3e-5,-10.54241 2.73656,-18.7246 8.20973,-24.54661 5.47314,-5.82187 12.57235,-8.73285 21.29772,-8.73294 8.44765,9e-5 15.34857,2.85204 20.7028,8.55594 5.3541,5.70396 8.0312,13.72882 8.03125,24.07456 -5e-5,0.62942 -0.0213,1.57352 -0.0594,2.83231 l -47.11673,0 c 0.39657,6.88406 2.35977,12.15528 5.88957,15.81365 3.52978,3.6584 7.93209,5.48761 13.20698,5.48761 3.92636,0 7.27767,-1.02278 10.05395,-3.06836 2.77618,-2.04553 4.97735,-5.31055 6.60348,-9.79504 m -35.15909,-17.17081 35.27806,0 c -0.47598,-5.2712 -1.82442,-9.22461 -4.04536,-11.86026 -3.41086,-4.09105 -7.833,-6.1366 -13.26646,-6.13666 -4.91796,6e-5 -9.06247,1.63256 -12.43358,4.89751 -3.33151,3.26509 -5.17574,7.63154 -5.53266,13.09941"
         id="path2992"
         style="font-size:40px;font-style:normal;font-variant:normal;font-weight:normal;font-stretch:normal;line-height:125%;letter-spacing:0px;word-spacing:0px;fill:#b3b3b3;fill-opacity:1;stroke:none;font-family:Arial;-inkscape-font-specification:Arial"
         inkscape:connector-curvature="0" />
      <path
         d="m 186.68174,392.29614 0,-62.66467 9.63752,0 0,8.90994 c 4.64026,-6.88397 11.34289,-10.32601 20.10788,-10.3261 3.80739,9e-5 7.2975,0.68849 10.47039,2.06524 3.21245,1.33755 5.61191,3.1077 7.19839,5.31056 1.58638,2.20294 2.69686,4.8189 3.33148,7.84784 0.39656,1.9669 0.59485,5.40896 0.59491,10.32611 l 0,38.53108 -10.70834,0 0,-38.11807 c -6e-5,-4.32706 -0.4165,-7.55274 -1.24932,-9.67701 -0.8329,-2.16352 -2.32018,-3.87471 -4.46179,-5.13355 -2.10207,-1.29809 -4.58084,-1.94714 -7.43637,-1.94721 -4.56098,7e-5 -8.5072,1.43588 -11.83868,4.30746 -3.29184,2.87169 -4.93776,8.31992 -4.93773,16.34474 l 0,34.22364 -10.70834,0"
         id="path2994"
         style="font-size:40px;font-style:normal;font-variant:normal;font-weight:normal;font-stretch:normal;line-height:125%;letter-spacing:0px;word-spacing:0px;fill:#b3b3b3;fill-opacity:1;stroke:none;font-family:Arial;-inkscape-font-specification:Arial"
         inkscape:connector-curvature="0" />
      <path
         d="m 291.48469,369.34271 10.52986,1.35712 c -1.15023,7.19878 -4.10493,12.84372 -8.86414,16.9348 -4.71964,4.05178 -10.5299,6.07765 -17.43079,6.07765 -8.64603,0 -15.60646,-2.79296 -20.88129,-8.37889 -5.23522,-5.62524 -7.8528,-13.66977 -7.8528,-24.13356 0,-6.76602 1.13032,-12.6863 3.39097,-17.76088 2.26066,-5.07448 5.6913,-8.87056 10.29193,-11.3882 4.64026,-2.55689 9.67713,-3.83535 15.11067,-3.83544 6.86124,9e-5 12.47318,1.73092 16.8359,5.19256 4.3626,3.42242 7.15866,8.30028 8.38822,14.63355 l -10.4109,1.59319 c -0.99157,-4.20909 -2.75648,-7.37574 -5.29469,-9.50001 -2.49866,-2.12418 -5.53268,-3.18629 -9.10209,-3.18635 -5.39388,6e-5 -9.77637,1.92759 -13.14748,5.78262 -3.37117,3.81579 -5.05673,9.87375 -5.05673,18.17395 0,8.41823 1.62607,14.5352 4.87827,18.35094 3.25214,3.81574 7.49579,5.72362 12.73101,5.72362 4.20399,0 7.71394,-1.2785 10.52988,-3.83541 2.81587,-2.55693 4.60057,-6.4907 5.3542,-11.80126"
         id="path2996"
         style="font-size:40px;font-style:normal;font-variant:normal;font-weight:normal;font-stretch:normal;line-height:125%;letter-spacing:0px;word-spacing:0px;fill:#b3b3b3;fill-opacity:1;stroke:none;font-family:Arial;-inkscape-font-specification:Arial"
         inkscape:connector-curvature="0" />
      <path
         d="m 311.23563,318.00725 0,-12.21431 10.70836,0 0,12.21431 -10.70836,0 m 0,74.28889 0,-62.66467 10.70836,0 0,62.66467 -10.70836,0"
         id="path2998"
         style="font-size:40px;font-style:normal;font-variant:normal;font-weight:normal;font-stretch:normal;line-height:125%;letter-spacing:0px;word-spacing:0px;fill:#b3b3b3;fill-opacity:1;stroke:none;font-family:Arial;-inkscape-font-specification:Arial"
         inkscape:connector-curvature="0" />
      <path
         style="font-size:40px;font-style:normal;font-variant:normal;font-weight:normal;font-stretch:normal;line-height:125%;letter-spacing:0px;word-spacing:0px;fill:#b3b3b3;fill-opacity:1;stroke:none;font-family:Arial;-inkscape-font-specification:Arial"
         d="m 333.81453,302.68412 0,94.11028 c 0.10339,-0.0854 4.21876,-3.45796 10.71875,-4.71538 l 0,-93.20013 c 0,0 -5.44621,0 -10.71875,3.80523 z"
         id="path3000"
         inkscape:connector-curvature="0"
         sodipodi:nodetypes="ccccc" />
      <path
         style="font-size:40px;font-style:normal;font-variant:normal;font-weight:normal;font-stretch:normal;line-height:125%;letter-spacing:0px;word-spacing:0px;fill:#00aad4;fill-opacity:1;stroke:none;font-family:Arial;-inkscape-font-specification:Arial"
         d="m 354.75203,298.87889 0,93.10645 c 3.08929,0.66408 6.39702,1.95849 9.84375,4.18451 l 0.0937,-11.71038 c 4.24366,6.17599 10.10627,9.24339 17.5625,9.24339 7.49579,0 13.92703,-2.9137 19.28125,-8.77497 5.35411,-5.86128 8.03119,-14.18053 8.03125,-24.91968 -6e-5,-4.52378 -0.63717,-8.76775 -1.90625,-12.74089 -1.26921,-3.97304 -3.0519,-7.35596 -5.3125,-10.14899 -2.22106,-2.83224 -5.07241,-5.02357 -8.5625,-6.55781 -3.45051,-1.57344 -7.1133,-2.34198 -11,-2.34207 -7.01996,9e-5 -12.79122,2.80627 -17.3125,8.43147 l 0,-33.9658 c -5.419,-3.95159 -10.71875,-3.80523 -10.71875,-3.80523 z m 27.09375,38.0833 c 4.64023,6e-5 8.56026,1.94523 11.8125,5.83958 3.29177,3.89445 4.93743,9.92987 4.9375,18.11204 -7e-5,7.98551 -1.68298,13.99784 -5.09375,18.04959 -3.41084,4.01244 -7.47636,6.02694 -12.15625,6.02694 -5.7508,0 -10.31639,-2.74495 -13.6875,-8.21287 -2.06238,-3.34366 -3.09378,-8.78737 -3.09375,-16.30084 -3e-5,-7.63145 1.71418,-13.4438 5.125,-17.45627 3.41081,-4.0517 7.47627,-6.05811 12.15625,-6.05817 z"
         id="path3002"
         inkscape:connector-curvature="0"
         sodipodi:nodetypes="ccccsscccccccccccccscscc" />
      <path
         d="m 418.16024,392.29614 0,-86.5032 10.70836,0 0,86.5032 -10.70836,0"
         id="path3004"
         style="font-size:40px;font-style:normal;font-variant:normal;font-weight:normal;font-stretch:normal;line-height:125%;letter-spacing:0px;word-spacing:0px;fill:#00aad4;fill-opacity:1;stroke:none;font-family:Arial;-inkscape-font-specification:Arial"
         inkscape:connector-curvature="0" />
      <path
         d="m 480.56604,392.29614 0,-9.20498 c -4.91796,7.08077 -11.60077,10.62112 -20.04844,10.62112 -3.72809,0 -7.21824,-0.70806 -10.47038,-2.12421 -3.21252,-1.41614 -5.61198,-3.18635 -7.19839,-5.31058 -1.54675,-2.16355 -2.63744,-4.79915 -3.27201,-7.90682 -0.43626,-2.08488 -0.65438,-5.38923 -0.65438,-9.91305 l 0,-38.82615 10.70837,0 0,34.7547 c -3e-5,5.54663 0.21809,9.28366 0.65438,11.21119 0.67422,2.79297 2.102,4.99588 4.28334,6.60871 2.18132,1.57349 4.87821,2.36026 8.09076,2.36026 3.21245,0 6.22667,-0.80644 9.0426,-2.41926 2.81584,-1.65216 4.79886,-3.87474 5.94907,-6.66771 1.18977,-2.83229 1.7847,-6.92337 1.78473,-12.2733 l 0,-33.57459 10.70836,0 0,62.66467 -9.57801,0"
         id="path3006"
         style="font-size:40px;font-style:normal;font-variant:normal;font-weight:normal;font-stretch:normal;line-height:125%;letter-spacing:0px;word-spacing:0px;fill:#00aad4;fill-opacity:1;stroke:none;font-family:Arial;-inkscape-font-specification:Arial"
         inkscape:connector-curvature="0" />
      <path
         d="m 545.98604,372.11598 11.06529,1.35715 c -1.74514,6.41202 -4.97745,11.38822 -9.69699,14.92859 -4.71967,3.54036 -10.74806,5.31056 -18.08522,5.31056 -9.24093,0 -16.57814,-2.81262 -22.0116,-8.43789 -5.39385,-5.66458 -8.09079,-13.59109 -8.09075,-23.77953 -4e-5,-10.54241 2.73655,-18.7246 8.20972,-24.54661 5.47315,-5.82187 12.57235,-8.73285 21.29773,-8.73294 8.44764,9e-5 15.34856,2.85204 20.70279,8.55594 5.35411,5.70396 8.03121,13.72882 8.03127,24.07456 -6e-5,0.62942 -0.0213,1.57352 -0.0594,2.83231 l -47.11674,0 c 0.39659,6.88406 2.35978,12.15528 5.88959,15.81365 3.52978,3.6584 7.93209,5.48761 13.20697,5.48761 3.92635,0 7.27767,-1.02278 10.05394,-3.06836 2.77618,-2.04553 4.97736,-5.31055 6.60349,-9.79504 m -35.15908,-17.17081 35.27805,0 c -0.47598,-5.2712 -1.82441,-9.22461 -4.04536,-11.86026 -3.41086,-4.09105 -7.83301,-6.1366 -13.26645,-6.13666 -4.91796,6e-5 -9.06247,1.63256 -12.43358,4.89751 -3.33152,3.26509 -5.17574,7.63154 -5.53266,13.09941"
         id="path3008"
         style="font-size:40px;font-style:normal;font-variant:normal;font-weight:normal;font-stretch:normal;line-height:125%;letter-spacing:0px;word-spacing:0px;fill:#00aad4;fill-opacity:1;stroke:none;font-family:Arial;-inkscape-font-specification:Arial"
         inkscape:connector-curvature="0" />
      <path
         style="fill:#00aad4;fill-opacity:1;stroke:none"
         d="m 341.68953,406.1627 7.78125,9.61812 7.375,-9.61812 c -8.38857,-7.13766 -15.15625,0 -15.15625,0 z"
         id="path3036"
         inkscape:connector-curvature="0"
         sodipodi:nodetypes="cccc" />
      <path
         style="fill:#b3b3b3;fill-opacity:1;fill-rule:nonzero;stroke:none"
         d="m 333.76859,284.30219 c 0,0 14.31902,-11.60483 31.70482,0 l 0,10.00253 c -17.15737,-10.10308 -31.70482,0 -31.70482,0 z"
         id="rect3096"
         inkscape:connector-curvature="0"
         sodipodi:nodetypes="ccccc" />
    </g>
  </g>
</svg>
