<?xml version="1.0" encoding="UTF-8" standalone="no"?>
<!-- Created with Inkscape (http://www.inkscape.org/) -->

<svg
   xmlns:dc="http://purl.org/dc/elements/1.1/"
   xmlns:cc="http://creativecommons.org/ns#"
   xmlns:rdf="http://www.w3.org/1999/02/22-rdf-syntax-ns#"
   xmlns:svg="http://www.w3.org/2000/svg"
   xmlns="http://www.w3.org/2000/svg"
   version="1.1"
   width="500"
   height="120"
   id="svg2">
  <defs
     id="defs4" />
  <metadata
     id="metadata7">
    <rdf:RDF>
      <cc:Work
         rdf:about="">
        <dc:format>image/svg+xml</dc:format>
        <dc:type
           rdf:resource="http://purl.org/dc/dcmitype/StillImage" />
        <dc:title></dc:title>
      </cc:Work>
    </rdf:RDF>
  </metadata>
  <g
     transform="translate(0,-932.36218)"
     id="layer1">
    <g
       transform="translate(-59.065279,483.60641)"
       id="g3808">
      <path
         d="m 59.065279,568.75577 0,-86.74222 9.75648,0 0,8.1487 c 2.300287,-3.18856 4.89807,-5.57017 7.793287,-7.14485 2.895218,-1.61395 6.405165,-2.42093 10.529903,-2.42102 5.393765,9e-5 10.153031,1.37786 14.277801,4.13341 4.12461,2.75566 7.23798,6.65285 9.34004,11.6916 2.10197,4.99948 3.15296,10.49097 3.15303,16.47453 -7e-5,6.41661 -1.17007,12.20336 -3.50998,17.36026 -2.30035,5.11754 -5.67149,9.0541 -10.11344,11.80969 -4.402371,2.7162 -9.042633,4.07433 -13.920843,4.07433 -3.569496,0 -6.781977,-0.74794 -9.637506,-2.24385 -2.815932,-1.49588 -5.136078,-3.38545 -6.960439,-5.66865 l 0,30.52807 -10.708333,0 m 9.696993,-55.03317 c -3e-5,8.06997 1.645899,14.03387 4.937728,17.89166 3.291798,3.85787 7.277702,5.78679 11.957652,5.78679 4.759235,0 8.824456,-1.98797 12.195631,-5.96392 3.410767,-4.01528 5.116157,-10.21536 5.116217,-18.60025 -6e-5,-7.9912 -1.66579,-13.97476 -4.997243,-17.95074 -3.291859,-3.97589 -7.238074,-5.96385 -11.838678,-5.96391 -4.560976,6e-5 -8.606368,2.12578 -12.136114,6.37726 -3.490149,4.21214 -5.235223,10.35319 -5.235193,18.42311"
         id="path2990"
         style="font-size:40px;font-style:normal;font-variant:normal;font-weight:normal;font-stretch:normal;line-height:125%;letter-spacing:0px;word-spacing:0px;fill:#b3b3b3;fill-opacity:1;stroke:none;font-family:Arial;-inkscape-font-specification:Arial" />
      <path
         d="m 168.01277,524.52845 11.06528,1.35812 c -1.74513,6.41661 -4.97745,11.39637 -9.69699,14.93927 -4.71967,3.54289 -10.74805,5.31436 -18.08521,5.31436 -9.24092,0 -16.57815,-2.81464 -22.01159,-8.44393 -5.39386,-5.66863 -8.09079,-13.60081 -8.09076,-23.79654 -3e-5,-10.54995 2.73656,-18.73799 8.20973,-24.56416 5.47314,-5.82604 12.57235,-8.7391 21.29772,-8.73919 8.44765,9e-5 15.34857,2.85408 20.7028,8.56206 5.3541,5.70804 8.0312,13.73864 8.03125,24.09178 -5e-5,0.62987 -0.0213,1.57464 -0.0594,2.83433 l -47.11673,0 c 0.39657,6.88899 2.35977,12.16398 5.88957,15.82497 3.52978,3.66101 7.93209,5.49153 13.20698,5.49153 3.92636,0 7.27767,-1.02351 10.05395,-3.07055 2.77618,-2.047 4.97735,-5.31435 6.60348,-9.80205 m -35.15909,-17.18309 35.27806,0 c -0.47598,-5.27497 -1.82442,-9.23121 -4.04536,-11.86874 -3.41086,-4.09398 -7.833,-6.14099 -13.26646,-6.14105 -4.91796,6e-5 -9.06247,1.63372 -12.43358,4.90101 -3.33151,3.26742 -5.17574,7.637 -5.53266,13.10878"
         id="path2992"
         style="font-size:40px;font-style:normal;font-variant:normal;font-weight:normal;font-stretch:normal;line-height:125%;letter-spacing:0px;word-spacing:0px;fill:#b3b3b3;fill-opacity:1;stroke:none;font-family:Arial;-inkscape-font-specification:Arial" />
      <path
         d="m 188.33874,544.72304 0,-62.70949 9.63752,0 0,8.91632 c 4.64026,-6.8889 11.34289,-10.3334 20.10788,-10.33349 3.80739,9e-5 7.2975,0.68898 10.47039,2.06672 3.21245,1.3385 5.61191,3.10992 7.19839,5.31436 1.58638,2.20451 2.69686,4.82234 3.33148,7.85345 0.39656,1.96831 0.59485,5.41283 0.59491,10.33349 l 0,38.55864 -10.70834,0 0,-38.14533 c -6e-5,-4.33015 -0.4165,-7.55814 -1.24932,-9.68393 -0.8329,-2.16507 -2.32018,-3.87748 -4.46179,-5.13722 -2.10207,-1.29902 -4.58084,-1.94854 -7.43637,-1.94861 -4.56098,7e-5 -8.5072,1.43691 -11.83868,4.31054 -3.29184,2.87375 -4.93776,8.32588 -4.93773,16.35644 l 0,34.24811 -10.70834,0"
         id="path2994"
         style="font-size:40px;font-style:normal;font-variant:normal;font-weight:normal;font-stretch:normal;line-height:125%;letter-spacing:0px;word-spacing:0px;fill:#b3b3b3;fill-opacity:1;stroke:none;font-family:Arial;-inkscape-font-specification:Arial" />
      <path
         d="m 293.14169,521.7532 10.52986,1.35809 c -1.15023,7.20393 -4.10493,12.8529 -8.86414,16.94691 -4.71964,4.05468 -10.5299,6.082 -17.43079,6.082 -8.64603,0 -15.60646,-2.79496 -20.88129,-8.38489 -5.23522,-5.62926 -7.8528,-13.67954 -7.8528,-24.15082 0,-6.77086 1.13032,-12.69537 3.39097,-17.77358 2.26066,-5.07811 5.6913,-8.87691 10.29193,-11.39635 4.64026,-2.55872 9.67713,-3.83809 15.11067,-3.83818 6.86124,9e-5 12.47318,1.73216 16.8359,5.19627 4.3626,3.42487 7.15866,8.30622 8.38822,14.64402 l -10.4109,1.59433 c -0.99157,-4.2121 -2.75648,-7.38102 -5.29469,-9.5068 -2.49866,-2.1257 -5.53268,-3.18857 -9.10209,-3.18863 -5.39388,6e-5 -9.77637,1.92897 -13.14748,5.78675 -3.37117,3.81852 -5.05673,9.88081 -5.05673,18.18695 0,8.42425 1.62607,14.5456 4.87827,18.36407 3.25214,3.81847 7.49579,5.72771 12.73101,5.72771 4.20399,0 7.71394,-1.27941 10.52988,-3.83815 2.81587,-2.55876 4.60057,-6.49535 5.3542,-11.8097"
         id="path2996"
         style="font-size:40px;font-style:normal;font-variant:normal;font-weight:normal;font-stretch:normal;line-height:125%;letter-spacing:0px;word-spacing:0px;fill:#b3b3b3;fill-opacity:1;stroke:none;font-family:Arial;-inkscape-font-specification:Arial" />
      <path
         d="m 312.89263,470.38102 0,-12.22305 10.70836,0 0,12.22305 -10.70836,0 m 0,74.34202 0,-62.70949 10.70836,0 0,62.70949 -10.70836,0"
         id="path2998"
         style="font-size:40px;font-style:normal;font-variant:normal;font-weight:normal;font-stretch:normal;line-height:125%;letter-spacing:0px;word-spacing:0px;fill:#b3b3b3;fill-opacity:1;stroke:none;font-family:Arial;-inkscape-font-specification:Arial" />
      <path
         d="m 335.47926,544.72304 0,-95.96727 10.70833,0 0,95.96727 -10.70833,0"
         id="path3000"
         style="font-size:40px;font-style:normal;font-variant:normal;font-weight:normal;font-stretch:normal;line-height:125%;letter-spacing:0px;word-spacing:0px;fill:#b3b3b3;fill-opacity:1;stroke:none;font-family:Arial;-inkscape-font-specification:Arial" />
      <path
         d="m 366.35489,544.72304 -9.93497,0 0,-95.96727 10.70834,0 0,40.28455 c 4.52128,-5.62922 10.29189,-8.44385 17.31185,-8.44394 3.8867,9e-5 7.55528,0.78738 11.00579,2.36195 3.49009,1.53534 6.34562,3.72011 8.56668,6.55438 2.2606,2.79503 4.02548,6.18047 5.29469,10.15635 1.26908,3.97598 1.90364,8.22745 1.9037,12.75447 -6e-5,10.74683 -2.67716,19.05299 -8.03127,24.91846 -5.35422,5.86547 -11.77921,8.79821 -19.275,8.79821 -7.45623,0 -13.30615,-3.09019 -17.54981,-9.2706 l 0,7.85344 m -0.11909,-31.82712 c -3e-5,7.51885 1.03113,12.95132 3.09351,16.29737 3.37111,5.47183 7.93209,8.20776 13.68289,8.20776 4.67989,0 8.72528,-2.00765 12.13612,-6.02296 3.41077,-4.05465 5.11615,-10.0776 5.11622,-18.06882 -7e-5,-8.18802 -1.64596,-14.23067 -4.93773,-18.12791 -3.25224,-3.89713 -7.19845,-5.84573 -11.83868,-5.84579 -4.67998,6e-5 -8.72534,2.0274 -12.13615,6.082 -3.41082,4.01534 -5.11621,9.84145 -5.11618,17.47835"
         id="path3002"
         style="font-size:40px;font-style:normal;font-variant:normal;font-weight:normal;font-stretch:normal;line-height:125%;letter-spacing:0px;word-spacing:0px;fill:#00aad4;fill-opacity:1;stroke:none;font-family:Arial;-inkscape-font-specification:Arial" />
      <path
         d="m 419.81724,544.72304 0,-86.56507 10.70836,0 0,86.56507 -10.70836,0"
         id="path3004"
         style="font-size:40px;font-style:normal;font-variant:normal;font-weight:normal;font-stretch:normal;line-height:125%;letter-spacing:0px;word-spacing:0px;fill:#00aad4;fill-opacity:1;stroke:none;font-family:Arial;-inkscape-font-specification:Arial" />
      <path
         d="m 482.22304,544.72304 0,-9.21156 c -4.91796,7.08583 -11.60077,10.62872 -20.04844,10.62872 -3.72809,0 -7.21824,-0.70857 -10.47038,-2.12573 -3.21252,-1.41716 -5.61198,-3.18863 -7.19839,-5.31438 -1.54675,-2.1651 -2.63744,-4.80258 -3.27201,-7.91248 -0.43626,-2.08637 -0.65438,-5.39308 -0.65438,-9.92014 l 0,-38.85392 10.70837,0 0,34.77956 c -3e-5,5.5506 0.21809,9.2903 0.65438,11.21921 0.67422,2.79497 2.102,4.99945 4.28334,6.61344 2.18132,1.57461 4.87821,2.36194 8.09076,2.36194 3.21245,0 6.22667,-0.80701 9.0426,-2.42099 2.81584,-1.65334 4.79886,-3.87751 5.94907,-6.67247 1.18977,-2.83432 1.7847,-6.92833 1.78473,-12.28208 l 0,-33.59861 10.70836,0 0,62.70949 -9.57801,0"
         id="path3006"
         style="font-size:40px;font-style:normal;font-variant:normal;font-weight:normal;font-stretch:normal;line-height:125%;letter-spacing:0px;word-spacing:0px;fill:#00aad4;fill-opacity:1;stroke:none;font-family:Arial;-inkscape-font-specification:Arial" />
      <path
         d="m 547.64304,524.52845 11.06529,1.35812 c -1.74514,6.41661 -4.97745,11.39637 -9.69699,14.93927 -4.71967,3.54289 -10.74806,5.31436 -18.08522,5.31436 -9.24093,0 -16.57814,-2.81464 -22.0116,-8.44393 -5.39385,-5.66863 -8.09079,-13.60081 -8.09075,-23.79654 -4e-5,-10.54995 2.73655,-18.73799 8.20972,-24.56416 5.47315,-5.82604 12.57235,-8.7391 21.29773,-8.73919 8.44764,9e-5 15.34856,2.85408 20.70279,8.56206 5.35411,5.70804 8.03121,13.73864 8.03127,24.09178 -6e-5,0.62987 -0.0213,1.57464 -0.0594,2.83433 l -47.11674,0 c 0.39659,6.88899 2.35978,12.16398 5.88959,15.82497 3.52978,3.66101 7.93209,5.49153 13.20697,5.49153 3.92635,0 7.27767,-1.02351 10.05394,-3.07055 2.77618,-2.047 4.97736,-5.31435 6.60349,-9.80205 m -35.15908,-17.18309 35.27805,0 c -0.47598,-5.27497 -1.82441,-9.23121 -4.04536,-11.86874 -3.41086,-4.09398 -7.83301,-6.14099 -13.26645,-6.14105 -4.91796,6e-5 -9.06247,1.63372 -12.43358,4.90101 -3.33152,3.26742 -5.17574,7.637 -5.53266,13.10878"
         id="path3008"
         style="font-size:40px;font-style:normal;font-variant:normal;font-weight:normal;font-stretch:normal;line-height:125%;letter-spacing:0px;word-spacing:0px;fill:#00aad4;fill-opacity:1;stroke:none;font-family:Arial;-inkscape-font-specification:Arial" />
      <path
         d="m 344.15363,557.30224 6.9661,10.91732 6.96609,-10.91732 c 0,0 -6.06989,1.59837 -13.93219,0 z"
         id="path3036"
         style="fill:#00aad4;fill-opacity:1;stroke:none" />
    </g>
  </g>
</svg>
