<?xml version="1.0" encoding="UTF-8" standalone="no"?>
<!-- Created with Inkscape (http://www.inkscape.org/) -->

<svg
   xmlns:dc="http://purl.org/dc/elements/1.1/"
   xmlns:cc="http://creativecommons.org/ns#"
   xmlns:rdf="http://www.w3.org/1999/02/22-rdf-syntax-ns#"
   xmlns:svg="http://www.w3.org/2000/svg"
   xmlns="http://www.w3.org/2000/svg"
   xmlns:sodipodi="http://sodipodi.sourceforge.net/DTD/sodipodi-0.dtd"
   xmlns:inkscape="http://www.inkscape.org/namespaces/inkscape"
   version="1.1"
   width="520"
   height="136"
   id="svg2"
   inkscape:version="0.48.4 r9939"
   sodipodi:docname="pb_logo.svg"
   inkscape:export-filename="/home/blake/node/pencilblue/public/img/logo_menu.png"
   inkscape:export-xdpi="20.34"
   inkscape:export-ydpi="20.34">
  <sodipodi:namedview
     pagecolor="#ffffff"
     bordercolor="#666666"
     borderopacity="1"
     objecttolerance="10"
     gridtolerance="10"
     guidetolerance="10"
     inkscape:pageopacity="0"
     inkscape:pageshadow="2"
     inkscape:window-width="1339"
     inkscape:window-height="744"
     id="namedview3073"
     showgrid="false"
     showguides="true"
     inkscape:guide-bbox="true"
     inkscape:snap-global="true"
     inkscape:zoom="1.207"
     inkscape:cx="293.83004"
     inkscape:cy="122.61485"
     inkscape:window-x="0"
     inkscape:window-y="0"
     inkscape:window-maximized="1"
     inkscape:current-layer="layer1" />
  <defs
     id="defs4" />
  <metadata
     id="metadata7">
    <rdf:RDF>
      <cc:Work
         rdf:about="">
        <dc:format>image/svg+xml</dc:format>
        <dc:type
           rdf:resource="http://purl.org/dc/dcmitype/StillImage" />
        <dc:title />
      </cc:Work>
    </rdf:RDF>
  </metadata>
  <g
     transform="matrix(1,0,0,1.0003242,1.657001,-764.20985)"
     id="layer1"
     inkscape:export-filename="/home/blake/node/pencilblue/public/img/pb_logo.png"
     inkscape:export-xdpi="30.422539"
     inkscape:export-ydpi="30.422539">
    <g
       id="g3919">
      <path
         d="m -1.657001,899.91809 0,-85.91477 9.75648,0 0,8.07096 c 2.300287,-3.15814 4.89807,-5.51703 7.793287,-7.07669 2.895218,-1.59856 6.405165,-2.39784 10.529903,-2.39792 5.393765,8e-5 10.153031,1.36471 14.277801,4.09398 4.124611,2.72937 7.237981,6.58938 9.340041,11.58007 2.10197,4.95179 3.15296,10.39089 3.15303,16.31737 -7e-5,6.35541 -1.17007,12.08696 -3.50998,17.19467 -2.30035,5.06872 -5.67149,8.96773 -10.113441,11.69704 -4.402371,2.69028 -9.042633,4.03545 -13.920843,4.03545 -3.569496,0 -6.781977,-0.7408 -9.637506,-2.22244 -2.815932,-1.48161 -5.136078,-3.35315 -6.960439,-5.61457 l 0,30.23685 -10.708333,0 m 9.696993,-54.5082 c -3e-5,7.993 1.645899,13.9 4.937728,17.721 3.291798,3.82106 7.277702,5.73158 11.957652,5.73158 4.759235,0 8.824456,-1.96901 12.195631,-5.90703 3.410767,-3.97698 5.116158,-10.11792 5.116218,-18.42282 -6e-5,-7.91497 -1.665791,-13.84146 -4.997244,-17.7795 -3.291859,-3.93797 -7.238074,-5.90697 -11.838678,-5.90702 -4.560976,5e-5 -8.606368,2.1055 -12.136114,6.31642 -3.490149,4.17196 -5.235223,10.25443 -5.235193,18.24737"
         id="path2990"
         style="font-size:40px;font-style:normal;font-variant:normal;font-weight:normal;font-stretch:normal;line-height:125%;letter-spacing:0px;word-spacing:0px;fill:#b3b3b3;fill-opacity:1;stroke:none;font-family:Arial;-inkscape-font-specification:Arial"
         inkscape:connector-curvature="0" />
      <path
         d="m 107.29049,856.11266 11.06528,1.34517 c -1.74513,6.3554 -4.97745,11.28765 -9.69699,14.79676 -4.71967,3.50909 -10.748049,5.26366 -18.085209,5.26366 -9.24092,0 -16.57815,-2.78778 -22.01159,-8.36337 -5.39386,-5.61456 -8.09079,-13.47108 -8.09076,-23.56955 -3e-5,-10.44931 2.73656,-18.55924 8.20973,-24.32984 5.47314,-5.77046 12.57235,-8.65574 21.29772,-8.65582 8.44765,8e-5 15.348569,2.82685 20.702799,8.48038 5.3541,5.65359 8.0312,13.60759 8.03125,23.86197 -5e-5,0.62386 -0.0213,1.55962 -0.0594,2.80729 l -47.116729,0 c 0.39657,6.82327 2.35977,12.04795 5.88957,15.67401 3.52978,3.62609 7.93209,5.43915 13.20698,5.43915 3.92636,0 7.27767,-1.01375 10.053949,-3.04126 2.77618,-2.02747 4.97735,-5.26366 6.60348,-9.70855 m -35.159089,-17.01918 35.278059,0 c -0.47598,-5.22465 -1.82442,-9.14315 -4.04536,-11.75552 -3.410859,-4.05493 -7.832999,-6.08241 -13.266459,-6.08247 -4.91796,6e-5 -9.06247,1.61814 -12.43358,4.85426 -3.33151,3.23626 -5.17574,7.56415 -5.53266,12.98373"
         id="path2992"
         style="font-size:40px;font-style:normal;font-variant:normal;font-weight:normal;font-stretch:normal;line-height:125%;letter-spacing:0px;word-spacing:0px;fill:#b3b3b3;fill-opacity:1;stroke:none;font-family:Arial;-inkscape-font-specification:Arial"
         inkscape:connector-curvature="0" />
      <path
         d="m 127.61646,876.11462 0,-62.1113 9.63752,0 0,8.83126 c 4.64026,-6.82318 11.34289,-10.23483 20.10788,-10.23491 3.80739,8e-5 7.2975,0.68241 10.47039,2.047 3.21245,1.32574 5.61191,3.08026 7.19839,5.26366 1.58638,2.18349 2.69686,4.77635 3.33148,7.77854 0.39656,1.94953 0.59485,5.3612 0.59491,10.23492 l 0,38.19083 -10.70834,0 0,-37.78146 c -6e-5,-4.28885 -0.4165,-7.48605 -1.24932,-9.59156 -0.8329,-2.14441 -2.32018,-3.84049 -4.46179,-5.08822 -2.10207,-1.28662 -4.58084,-1.92994 -7.43637,-1.93001 -4.56098,7e-5 -8.5072,1.4232 -11.83868,4.26942 -3.29184,2.84633 -4.93776,8.24645 -4.93773,16.20041 l 0,33.92142 -10.70834,0"
         id="path2994"
         style="font-size:40px;font-style:normal;font-variant:normal;font-weight:normal;font-stretch:normal;line-height:125%;letter-spacing:0px;word-spacing:0px;fill:#b3b3b3;fill-opacity:1;stroke:none;font-family:Arial;-inkscape-font-specification:Arial"
         inkscape:connector-curvature="0" />
      <path
         d="m 232.41941,853.36388 10.52986,1.34514 c -1.15023,7.13521 -4.10493,12.7303 -8.86414,16.78525 -4.71964,4.016 -10.5299,6.02398 -17.43079,6.02398 -8.64603,0 -15.60646,-2.76829 -20.88129,-8.3049 -5.23522,-5.57556 -7.8528,-13.54905 -7.8528,-23.92044 0,-6.70627 1.13032,-12.57427 3.39097,-17.60404 2.26066,-5.02967 5.6913,-8.79223 10.29193,-11.28763 4.64026,-2.53431 9.67713,-3.80149 15.11067,-3.80157 6.86124,8e-5 12.47318,1.71563 16.8359,5.1467 4.3626,3.3922 7.15866,8.22698 8.38822,14.50433 l -10.4109,1.57912 c -0.99157,-4.17192 -2.75648,-7.31061 -5.29469,-9.41612 -2.49866,-2.10542 -5.53268,-3.15815 -9.10209,-3.15821 -5.39388,6e-5 -9.77637,1.91057 -13.14748,5.73155 -3.37117,3.7821 -5.05673,9.78656 -5.05673,18.01347 0,8.34389 1.62607,14.40684 4.87827,18.18888 3.25214,3.78205 7.49579,5.67308 12.73101,5.67308 4.20399,0 7.71394,-1.26721 10.52988,-3.80154 2.81587,-2.53435 4.60057,-6.43338 5.3542,-11.69705"
         id="path2996"
         style="font-size:40px;font-style:normal;font-variant:normal;font-weight:normal;font-stretch:normal;line-height:125%;letter-spacing:0px;word-spacing:0px;fill:#b3b3b3;fill-opacity:1;stroke:none;font-family:Arial;-inkscape-font-specification:Arial"
         inkscape:connector-curvature="0" />
      <path
         d="m 252.17035,802.48175 0,-12.10645 10.70836,0 0,12.10645 -10.70836,0 m 0,73.63287 0,-62.1113 10.70836,0 0,62.1113 -10.70836,0"
         id="path2998"
         style="font-size:40px;font-style:normal;font-variant:normal;font-weight:normal;font-stretch:normal;line-height:125%;letter-spacing:0px;word-spacing:0px;fill:#b3b3b3;fill-opacity:1;stroke:none;font-family:Arial;-inkscape-font-specification:Arial"
         inkscape:connector-curvature="0" />
      <path
         style="font-size:40px;font-style:normal;font-variant:normal;font-weight:normal;font-stretch:normal;line-height:125%;letter-spacing:0px;word-spacing:0px;fill:#b3b3b3;fill-opacity:1;stroke:none;font-family:Arial;-inkscape-font-specification:Arial"
         d="m 274.74925,787.29393 0,93.27923 c 0.10339,-0.0847 4.21876,-3.42743 10.71875,-4.67374 l 0,-92.37711 c 0,0 -5.44621,0 -10.71875,3.77162 z"
         id="path3000"
         inkscape:connector-curvature="0"
         sodipodi:nodetypes="ccccc" />
      <path
         style="font-size:40px;font-style:normal;font-variant:normal;font-weight:normal;font-stretch:normal;line-height:125%;letter-spacing:0px;word-spacing:0px;fill:#00aad4;fill-opacity:1;stroke:none;font-family:Arial;-inkscape-font-specification:Arial"
         d="m 295.68675,783.52231 0,92.28425 c 3.08929,0.65822 6.39702,1.9412 9.84375,4.14756 l 0.0937,-11.60697 c 4.24366,6.12145 10.10627,9.16177 17.5625,9.16177 7.49579,0 13.92703,-2.88797 19.28125,-8.69749 5.35411,-5.80952 8.03119,-14.0553 8.03125,-24.69962 -6e-5,-4.48383 -0.63717,-8.69032 -1.90625,-12.62838 -1.26921,-3.93795 -3.0519,-7.291 -5.3125,-10.05936 -2.22106,-2.80723 -5.07241,-4.97921 -8.5625,-6.4999 -3.45051,-1.55955 -7.1133,-2.3213 -11,-2.32139 -7.01996,9e-5 -12.79122,2.78149 -17.3125,8.35701 l 0,-33.66586 c -5.419,-3.91669 -10.71875,-3.77162 -10.71875,-3.77162 z m 27.09375,37.74699 c 4.64023,6e-5 8.56026,1.92806 11.8125,5.78802 3.29177,3.86006 4.93743,9.84218 4.9375,17.9521 -7e-5,7.91499 -1.68298,13.87423 -5.09375,17.8902 -3.41084,3.977 -7.47636,5.97371 -12.15625,5.97371 -5.7508,0 -10.31639,-2.72071 -13.6875,-8.14034 -2.06238,-3.31413 -3.09378,-8.70977 -3.09375,-16.15689 -3e-5,-7.56406 1.71418,-13.32509 5.125,-17.30212 3.41081,-4.01592 7.47627,-6.00462 12.15625,-6.00468 z"
         id="path3002"
         inkscape:connector-curvature="0"
         sodipodi:nodetypes="ccccsscccccccccccccscscc" />
      <path
         d="m 359.09496,876.11462 0,-85.73932 10.70836,0 0,85.73932 -10.70836,0"
         id="path3004"
         style="font-size:40px;font-style:normal;font-variant:normal;font-weight:normal;font-stretch:normal;line-height:125%;letter-spacing:0px;word-spacing:0px;fill:#00aad4;fill-opacity:1;stroke:none;font-family:Arial;-inkscape-font-specification:Arial"
         inkscape:connector-curvature="0" />
      <path
         d="m 421.50076,876.11462 0,-9.1237 c -4.91796,7.01825 -11.60077,10.52733 -20.04844,10.52733 -3.72809,0 -7.21824,-0.7018 -10.47038,-2.10545 -3.21252,-1.40363 -5.61198,-3.15821 -7.19839,-5.26368 -1.54675,-2.14445 -2.63744,-4.75677 -3.27201,-7.837 -0.43626,-2.06647 -0.65438,-5.34164 -0.65438,-9.82551 l 0,-38.48329 10.70837,0 0,34.44779 c -3e-5,5.49765 0.21809,9.20168 0.65438,11.11219 0.67422,2.76831 2.102,4.95176 4.28334,6.55035 2.18132,1.5596 4.87821,2.33942 8.09076,2.33942 3.21245,0 6.22667,-0.79932 9.0426,-2.3979 2.81584,-1.63757 4.79886,-3.84052 5.94907,-6.60883 1.18977,-2.80728 1.7847,-6.86223 1.78473,-12.16492 l 0,-33.2781 10.70836,0 0,62.1113 -9.57801,0"
         id="path3006"
         style="font-size:40px;font-style:normal;font-variant:normal;font-weight:normal;font-stretch:normal;line-height:125%;letter-spacing:0px;word-spacing:0px;fill:#00aad4;fill-opacity:1;stroke:none;font-family:Arial;-inkscape-font-specification:Arial"
         inkscape:connector-curvature="0" />
      <path
         d="m 486.92076,856.11266 11.06529,1.34517 c -1.74514,6.3554 -4.97745,11.28765 -9.69699,14.79676 -4.71967,3.50909 -10.74806,5.26366 -18.08522,5.26366 -9.24093,0 -16.57814,-2.78778 -22.0116,-8.36337 -5.39385,-5.61456 -8.09079,-13.47108 -8.09075,-23.56955 -4e-5,-10.44931 2.73655,-18.55924 8.20972,-24.32984 5.47315,-5.77046 12.57235,-8.65574 21.29773,-8.65582 8.44764,8e-5 15.34856,2.82685 20.70279,8.48038 5.35411,5.65359 8.03121,13.60759 8.03127,23.86197 -6e-5,0.62386 -0.0213,1.55962 -0.0594,2.80729 l -47.11674,0 c 0.39659,6.82327 2.35978,12.04795 5.88959,15.67401 3.52978,3.62609 7.93209,5.43915 13.20697,5.43915 3.92635,0 7.27767,-1.01375 10.05394,-3.04126 2.77618,-2.02747 4.97736,-5.26366 6.60349,-9.70855 m -35.15908,-17.01918 35.27805,0 c -0.47598,-5.22465 -1.82441,-9.14315 -4.04536,-11.75552 -3.41086,-4.05493 -7.83301,-6.08241 -13.26645,-6.08247 -4.91796,6e-5 -9.06247,1.61814 -12.43358,4.85426 -3.33152,3.23626 -5.17574,7.56415 -5.53266,12.98373"
         id="path3008"
         style="font-size:40px;font-style:normal;font-variant:normal;font-weight:normal;font-stretch:normal;line-height:125%;letter-spacing:0px;word-spacing:0px;fill:#00aad4;fill-opacity:1;stroke:none;font-family:Arial;-inkscape-font-specification:Arial"
         inkscape:connector-curvature="0" />
      <path
         style="fill:#00aad4;fill-opacity:1;stroke:none"
         d="m 282.62425,889.85873 7.78125,9.53318 7.375,-9.53318 c -8.38857,-7.07463 -15.15625,0 -15.15625,0 z"
         id="path3036"
         inkscape:connector-curvature="0"
         sodipodi:nodetypes="cccc" />
      <path
         style="fill:#b3b3b3;fill-opacity:1;fill-rule:nonzero;stroke:none"
         d="m 274.70331,769.07433 c 0,0 14.31902,-11.50235 31.70482,0 l 0,9.9142 c -17.15737,-10.01386 -31.70482,0 -31.70482,0 z"
         id="rect3096"
         inkscape:connector-curvature="0"
         sodipodi:nodetypes="ccccc" />
      <text
         transform="scale(1.0001621,0.99983793)"
         sodipodi:linespacing="125%"
         id="text3079"
         y="885.16742"
         x="495.39188"
         style="font-size:26.12651062px;font-style:normal;font-variant:normal;font-weight:normal;font-stretch:normal;line-height:125%;letter-spacing:0px;word-spacing:0px;fill:#00aad4;fill-opacity:1;stroke:none;font-family:Arial;-inkscape-font-specification:Arial"
         xml:space="preserve"><tspan
           y="885.16742"
           x="495.39188"
           id="tspan3081"
           sodipodi:role="line">™</tspan></text>
    </g>
  </g>
</svg>
